<?xml version="1.0" encoding="UTF-8"?><svg id="Layer_2" xmlns="http://www.w3.org/2000/svg" viewBox="0 0 295.74 1022.13"><defs><style>.cls-1{fill-rule:evenodd;stroke-width:0px;}</style></defs><g id="Layer_1-2"><path class="cls-1" d="m198.19,5.41c.49,3.36,3.13,4.92,4.83,7.06h.37c-.04-1.15-.05-2.35.37-2.97v.74c.3.38.13.1.37.74.3-.38.13-.1.37-.74.25-.29.49-.83.74-1.11v.74c.26.37.48,1.49.74,1.86v-.37c.24-.32.5-1.17.74-1.49v.74c.26.38.48,1.48.74,1.86.12-1.26.48-2.89,1.11-3.72.19,1.41.52,1.56.74,2.97,1.05.11,1.62.25,2.23.74-.48.21-.28.01-.37.37,1.07,1.53,2,3.7,2.97,5.2,1.33-.1,1.35-.72,1.86.37,2.29,2,2.82,3.7,3.34,6.69h.37c.29-1.64.32-.08.74-1.49-.62-.71-1.17-1.64-1.49-2.6h.37c4.78,7.39,4.91,12.97,0,20.81-.71,1.14-1.7,2.52-2.6,3.72-.73.97-1.64.53-2.23,1.86-.49.83-.1,4.27-.74,5.95-1.14,2.94-4.57,4.7-5.57,7.43.25,3.84.5,7.68.74,11.52-.53,1.88-2.35,2.69-2.97,4.09-.34.77.17,3.15-.37,4.09-1.85,1.18-3.3.67-4.09,2.97-1.31,2.96,4.32,5.56,2.6,10.41-.33.94-1.87,1.44-2.23,2.23-.9,1.96-.07,4.1-.74,5.95-2.29,6.26-5.9,13.58-8.55,19.7-1.3,3.01-1.16,7.7-2.97,10.41-1,1.49-3.23,2.09-4.09,3.72h.37c1.32,4.4,7.14,9.33,9.66,13.38,1.35,2.17,1.57,5.72,4.46,6.32.51-8.87,6.92-22.61,15.98-22.67.4.44.74.61,1.11,1.12.62.77.71,1.54.74,2.97-4.63,3.59-5.15,11.55-6.69,18.21.12,2.85.25,5.7.37,8.55-.75,3.45-3.64,9.23-1.86,12.27.37.63,4.37,7.74,4.46,7.8.89.69,2.02-.15,2.97,1.11,2.65,3.48,4.83,7.89,7.06,11.52,4.82,7.83,7.44,16.96,12.27,24.9,5.64,9.29,11.27,18.26,17.1,27.51,3.74,5.93,9,10.79,13.01,16.35,3.86,5.36,7.04,11.72,9.66,18.21,2.42,5.97,2.97,11.94,4.83,18.21.54,1.83,1.93,5.31,1.12,8.18-.4,1.38-1.83,2.83-2.23,4.09-1.36,4.2,1.86,8.31.74,13.01-1.63,6.87-4.84,12.37-10.41,15.24-7.5,3.87-14.72-1.59-21.56-2.6-.29,1.26-1.18,2.35-1.49,3.34v5.2c-.72,2.6-1.25,8.8-2.97,10.04-3.93,3.14-15.64,2.92-19.33,0-.66-.71-.71-1.17-.74-2.6.89-.75,1.56-1.17,1.86-2.6-3.78-.16-3.6-2.56-6.32-3.34-1.28,1.07-3.06,1.11-4.83.74-.55-1.17-.97-1.64-1.11-3.34h-2.23c-.37,6.69-.74,13.38-1.11,20.07-.81,3.53-2.2,9.96-1.11,14.87,2.02,9.13,2.6,19.8,2.6,30.11,0,5.43-1.08,8.79-2.23,12.64-.76,2.54-.15,4.56-.74,7.43-.1.5-.6,1.9-.37,2.97.72,3.34.55,7.1,1.49,10.41,1.11,3.34,2.23,6.69,3.34,10.04v4.09c.77,2.43,2.5,5.17,3.34,7.81,1.99,6.18,2.54,12.91,4.09,18.96.74,6.07,1.49,12.14,2.23,18.21,2.35,9.54.71,24.62,2.99,34.56,1.27,5.54.78,27.62,1.95,32.88,1.11,4.99-.23,11.76-1.11,15.61-.37,3.72-.74,7.43-1.11,11.15-1.84,7.58,2.95,26.94,1.16,34.63-1.24,12.76-2.48,25.52-3.72,38.28-1.56,6.55-2.71,17.97-4.14,24.16-.37,5.08.25,18.64-.12,23.72.52,2.44-3.61,20.78-4.27,23.8-1.56,7.14-1.85,13.75-3.34,20.44.12,4.21.25,8.42.37,12.64,0,6.04-2.84,12.45-1.49,17.84,1.05,4.19,2.6,7.54,2.6,13.38v28.99c-1.15,5.29-1.16,13.64,0,18.58v7.43c0,5.34.06,11.18,1.11,15.98,1.25,5.65-.29,19.36-1.49,23.42-.57,1.93-2.77,6.29-2.23,8.55.27,1.12,1.76,2.65,2.23,3.72,1.99,4.57,4.16,8.29,5.95,12.64,4,9.73,5.28,22.15,5.95,35.31,4.7.96,6.29,5.54,10.04,7.43,1.56.79,2.82.13,3.72,1.49.25.99.49,1.98.74,2.97.76,1.2,5.62,7.02,6.69,7.81,8.7,6.39,20.65,10.53,31.59,14.5,5.48,1.99,12.67,1.92,15.61,6.32,1.68,2.5,2.98,10.93,2.97,14.87-12.55,2.83-32.12,6.53-47.58,2.97-5.36-1.23-10.86.06-15.61-1.49-8.11-2.64-14.55-7.88-22.3-11.15-4.48-1.89-12.93,1.44-14.5,5.2-8.67.55-28.07,4.42-27.88-6.69-1.87-3.04.34-8.28-.37-11.52-1.62-7.35-1.86-16.78-1.86-25.65-5.51-2.86-5.18-13.16-6.69-20.07v-5.2c-1.32-6.01-.52-13.14-1.86-19.33v-7.43c-1.73-7.67-2.31-16.13-4.09-24.16-.25-3.97-.49-7.93-.74-11.89-1.51-6.89-.04-15.44-1.86-22.3-2.15-8.12-4.68-15.93-6.69-24.9-.25-14-.49-28-.74-42,0-8.65.82-15.87,2.97-22.67,1.06-3.33,2.62-34.18,1.54-39.11-1.4-6.39-.82-13.4-2.6-19.7-1.07-3.79-3.51-6.64-4.46-10.41-.12-4.46-3.11-17.75-3.24-22.21-.72-3.22-.24-7.11-1.11-10.78-.92-3.83-.78-9.59-1.69-13.29-1.22-4.96,2.51-7.67,1.11-12.64-.54-1.91-2.95-3.33-2.97-5.2-.58-53.22-3.29-53.57-6.82-42.65-.09.26-.5.25-.74.37-1.23,2.61-2.95,4.58-3.72,7.81.12,3.84.25,7.68.37,11.52-1.36,4.09-2.72,8.18-4.09,12.27-2.42,8.59-2.85,17.11-5.58,25.27-4.57,13.7-11.03,24.54-15.61,38.66-1.66,5.11-2.08,10.57-3.34,15.98-.25,2.6-.5,5.2-.74,7.81-2.06,8-3.46,17.02-5.58,25.28-.99,3.86-.45,7.2-1.49,11.15-.99,3.1-1.98,6.2-2.97,9.29-.32,1.33.2,3.33.37,4.09.69,3.09-.02,7.73-.74,10.41-3.15,11.71-7.14,22.83-11.15,33.82-1.36,4.95-2.73,9.91-4.09,14.87-1.29,3.16-3.48,6.86-4.46,10.03.12,2.48.25,4.96.37,7.43.04,4.74.59,8.78,1.49,12.64l.37,7.06c.58,2.71,1.1,8.6.37,11.89-.62,4.83-1.24,9.66-1.86,14.5-2.22,8.67-4.23,17.19-6.32,25.65-.37,5.08-.74,10.16-1.11,15.24-1.02,3.42-4.11,5.97-4.83,9.29,1.7,2.85.02,9.26,1.12,12.27,1.84,5.07,4.12,10.34,5.95,15.61.86,2.49-.08,4.71.74,7.43,1.29,4.29,3.02,11.43,1.86,16.73-.85,3.9,2.35,6.82.74,11.15-.76.26-1.74.37-2.97.37-1.86,1.19-11.77.37-14.87.37-6.24,0-13.38.91-18.96-.37h-4.46c-2.58-.75-3.97-3.11-6.32-4.09-2.55-1.06-5.71-.45-7.06-2.6-1.76-2.79.48-8.23.74-10.41.24-2.03-1.42-4.5-.74-7.43,1.33-5.75,2.6-10.64,2.6-17.84,0-8.39,1.43-19.22-1.49-25.65-1.33-2.93,1.24-11.84.37-15.61-2.11-9.19-3.34-18.7-3.34-30.11v-11.52c1.46-6.58-.35-12.15-1.86-17.47-1.36-4.8-1.1-9.88-2.23-14.87-.86-3.8-.36-10.91.37-14.12.12-2.6.25-5.2.37-7.81,1.17-4.93,1.43-10.78,2.6-15.98.25-10.16.5-20.32.74-30.48,2.41-10.59,3.36-20.85,5.95-30.85,1.28-4.93.89-9.37,2.23-14.12,3.06-10.82,6.93-20.14,9.66-31.22,1.61-6.54,1.02-18.05-.37-24.16v-14.87c-.6-2.78-1.14-8.91-.37-12.27,4.56-19.97,7.61-39.43,11.9-59.84-.12-1.49-.25-2.97-.37-4.46.12-7.31.25-14.62.37-21.93,1.68-7.55-.16-16.75,1.49-24.16-.12-3.34-.25-6.69-.37-10.03,1.74-7.8.9-17.75,2.6-25.28,1.51-6.65-1.03-14.99.37-21.19,1.21-5.37-.66-12.25,1.11-17.1.37-1,1.13-.86,1.49-2.23-1.75-.75-1.89-3.65-1.49-6.32.82-5.5.85-10.33,2.6-14.5,1.93-4.59,3.9-12.78,2.23-19.7-.77-3.19-3.49-10.28-2.6-14.12,1.05-4.56,3.44-8.39,4.83-12.64,1.37-4.19.84-8.22,1.86-13.01.33-1.55.91-5.32.37-7.43-4.57-17.89-11.66-34.12-16.35-52.41-.37-3.22-.74-6.44-1.11-9.66-3.64-15.43-1.8-33.84-6.69-47.58-1.26-3.54-6.45-7.39-8.55-10.78-7.06-11.39-10.7-36.43-4.46-51.29,3.25-7.75,7.82-15.52,12.64-21.93,3.4-4.52,9.11-7.82,13.75-11.15,6.15-4.42,12.12-9.67,18.58-13.75,2.8-1.77,5.75-2.7,8.55-4.46,2.08-1.31,3.9-3.56,5.95-4.83,2.02-1.25,4.4-.24,7.06-1.11,1.77-.58,3.67-2.41,5.2-3.35,3.78-2.31,7.55-3.9,11.15-6.32,6.63-4.45,11.53-11.14,14.12-19.7,1.01-3.35,2.23-8.49.74-12.27-.32.27-.42.47-.74.74-.15-2.11-1.72-3.83-1.49-5.58.24-1.8,1.99-5.46.74-8.18-2.25-4.88-3.62-13.7-2.23-20.07,1.15-5.26-2.03-7.21-.37-11.89h-.37c-.32.44-.3.42-.74.74v-1.86c1.19-1.77,1.4-8.82,2.6-11.52h.37c.07.86.07,1.05.37,1.49v-.74c.84-.65,1.18-1.4,1.49-2.6h-.74c-.29.54-.7,1.39-1.11,1.86-.47-4.54,1.49-8.61,3.72-11.52.81-1.06,1.97-1.23,2.6-2.6-1-1.28-.47-2.64-.37-4.83,3.46-1.44,5.75-10.62,10.41-9.29v-.37c-.33-.67-.11-.67,0-1.86,2.05-.61,2.5-2.55,4.09-3.35,1.37-.69,2.61,1,3.72-.74-.84-.22-.99-.28-1.49-.74,3.08-.05,6.36-.16,8.18.37v-1.11c2.81.08,5.85-.56,7.43-1.86-.77-.14-.71-.09-1.11-.37,2.91-.01,4.21-1.99,6.32-1.49,0,0,.26.77.74.37v-.74c1.16-.96.58-1.48,1.49-2.23,4.45-3.57,9.35,1.26,13.01.74,1.5-.21,4.74-1.64,7.06-1.11,1.32.3,2.36,1.05,3.72.74,1.16.44,2.46,1.99,3.72,2.23.36.07,1.32-.61,2.23-.37.2.05.73.69,1.12.74.37-.21.7-.93,1.49-.74.78.19,1.51,1.16,2.97,1.49.75-.35,2.72-2.2,5.2-1.49,2.11.6,2.85,1.59,5.57,1.86h0Zm-29.74-3.34c.64.33.47.33,1.12,0h-1.12Zm-16.35.37c.38.3.1.13.74.37-.38-.3-.1-.13-.74-.37h0Zm44.6,7.8v1.11h.74v.37h.37v-.74h.37v-.37c-1.01-.02-.25.06-1.49-.37h0Zm-91.06,32.34c.28.4.22.35.37,1.12h-.37v-1.12h0Zm107.42,5.58c.12.37.25.74.37,1.12h.37c-.31-.89-.15-.61-.74-1.12h0Zm-40.51,88.09c-1.64,1.22-9.97,5.6-8.55,7.8,2.04,1.36,8.89,1.86,12.27,1.86.32-.91.39-2.3.37-3.72-.99-1.98-1.98-3.96-2.97-5.95h-1.11Z"/></g></svg>