<svg width="434" height="96" viewBox="0 0 434 96" fill="none" xmlns="http://www.w3.org/2000/svg">
<g clip-path="url(#clip0_616_3439)">
<path d="M44.1994 20.5677V93.4064H19.9394V20.5677H0V0H64.1388V20.5677H44.1994Z" fill="white"/>
<path d="M103.631 29.8581H126.163V93.4064H103.631V86.3484C98.8458 92.3742 92.3584 95.3935 84.1943 95.3935C79.5641 95.3935 75.3209 94.5419 71.4388 92.8516C67.5567 91.1613 64.1775 88.7871 61.2885 85.729C58.3995 82.671 56.1553 79.0839 54.5432 74.9548C52.931 70.8258 52.1313 66.3226 52.1313 61.4581C52.1313 56.9161 52.9181 52.6064 54.4787 48.5161C56.0393 44.4258 58.2318 40.8516 61.0435 37.8064C63.8422 34.7484 67.1955 32.3355 71.0777 30.5548C74.9598 28.7742 79.2546 27.8968 83.9493 27.8968C91.8683 27.8968 98.4331 30.671 103.631 36.1935V29.871V29.8581ZM75.3983 61.4452C75.3983 63.5097 75.7723 65.4323 76.5075 67.2C77.2555 68.9806 78.2615 70.529 79.5384 71.8452C80.8152 73.1613 82.3371 74.1935 84.1169 74.9419C85.8968 75.6903 87.8056 76.0516 89.8692 76.0516C91.9328 76.0516 93.7255 75.6774 95.5054 74.9419C97.2852 74.1935 98.8071 73.1613 100.084 71.8452C101.361 70.529 102.393 68.9935 103.179 67.2645C103.966 65.5355 104.353 63.6774 104.353 61.6903C104.353 59.7032 103.966 57.8323 103.179 56.0516C102.393 54.271 101.361 52.7226 100.084 51.4064C98.8071 50.0903 97.2723 49.0581 95.5054 48.3097C93.7255 47.5613 91.8554 47.2 89.8692 47.2C87.883 47.2 85.8839 47.5742 84.1169 48.3097C82.3371 49.0581 80.8152 50.0903 79.5384 51.4064C78.2615 52.7226 77.2426 54.2323 76.5075 55.9226C75.7594 57.6129 75.3983 59.4581 75.3983 61.4323V61.4452Z" fill="white"/>
<path d="M162.443 48.5548V93.3935H140.027V48.5548H132.598V29.8452H140.027V10.7742H162.443V29.8452H175.199V48.5548H162.443Z" fill="white"/>
<path d="M210.486 48.5548V93.3935H188.07V48.5548H180.641V29.8452H188.07V10.7742H210.486V29.8452H223.241V48.5548H210.486Z" fill="white"/>
<path d="M216.677 81.5097C216.677 79.5226 217.051 77.6516 217.786 75.871C218.534 74.0903 219.566 72.5419 220.881 71.2258C222.197 69.9097 223.744 68.8774 225.524 68.129C227.304 67.3806 229.174 67.0194 231.16 67.0194C233.147 67.0194 235.017 67.3936 236.797 68.129C238.576 68.8774 240.124 69.9097 241.44 71.2258C242.755 72.5419 243.787 74.0903 244.535 75.871C245.283 77.6516 245.644 79.5226 245.644 81.5097C245.644 83.4968 245.27 85.3677 244.535 87.1484C243.787 88.929 242.755 90.4774 241.44 91.7936C240.124 93.1097 238.576 94.1419 236.797 94.8903C235.017 95.6387 233.147 96 231.16 96C229.174 96 227.304 95.6258 225.524 94.8903C223.744 94.1419 222.197 93.1097 220.881 91.7936C219.566 90.4774 218.534 88.929 217.786 87.1484C217.038 85.3677 216.677 83.4968 216.677 81.5097Z" fill="white"/>
<path d="M248.495 61.071C248.495 56.3613 249.436 51.9613 251.345 47.8839C253.241 43.7935 255.885 40.2452 259.264 37.2258C262.643 34.2065 266.667 31.8323 271.336 30.1032C276.005 28.3742 281.099 27.4968 286.632 27.4968C292.165 27.4968 297.131 28.3484 301.8 30.0387C306.455 31.729 310.505 34.0903 313.936 37.0968C317.367 40.1161 320.024 43.7032 321.92 47.871C323.815 52.0387 324.77 56.6452 324.77 61.6774C324.77 66.7097 323.803 71.3161 321.855 75.4839C319.92 79.6516 317.251 83.2516 313.872 86.2581C310.492 89.2774 306.417 91.6 301.671 93.2516C296.924 94.9032 291.778 95.729 286.258 95.729C280.738 95.729 275.773 94.9032 271.155 93.2516C266.538 91.6 262.553 89.2516 259.212 86.1936C255.872 83.1355 253.254 79.4839 251.345 75.2258C249.449 70.9677 248.495 66.2452 248.495 61.0452V61.071ZM272.148 61.3161C272.148 63.4581 272.535 65.4194 273.322 67.2C274.109 68.9806 275.141 70.529 276.417 71.8452C277.694 73.1613 279.229 74.1936 280.996 74.9419C282.776 75.6903 284.646 76.0516 286.632 76.0516C288.618 76.0516 290.488 75.6774 292.268 74.9419C294.048 74.1936 295.57 73.1613 296.847 71.8452C298.124 70.529 299.156 68.9806 299.942 67.2C300.729 65.4194 301.116 63.5097 301.116 61.4452C301.116 59.3806 300.729 57.5871 299.942 55.8064C299.156 54.0258 298.124 52.4774 296.847 51.1613C295.57 49.8452 294.035 48.8129 292.268 48.0645C290.488 47.3161 288.618 46.9548 286.632 46.9548C284.646 46.9548 282.776 47.329 280.996 48.0645C279.216 48.8129 277.694 49.8452 276.417 51.1613C275.141 52.4774 274.109 54.0129 273.322 55.7419C272.535 57.471 272.148 59.329 272.148 61.3161Z" fill="white"/>
<path d="M302.973 61.071C302.973 56.3613 303.915 51.9613 305.823 47.8839C307.719 43.7935 310.363 40.2452 313.742 37.2258C317.122 34.2065 321.146 31.8323 325.814 30.1032C330.483 28.3742 335.578 27.4968 341.111 27.4968C346.644 27.4968 351.609 28.3484 356.278 30.0387C360.934 31.729 364.984 34.0903 368.415 37.0968C371.845 40.1161 374.502 43.7032 376.398 47.871C378.294 52.0387 379.248 56.6452 379.248 61.6774C379.248 66.7097 378.281 71.3161 376.334 75.4839C374.399 79.6516 371.729 83.2516 368.35 86.2581C364.971 89.2774 360.895 91.6 356.149 93.2516C351.403 94.9032 346.257 95.729 340.737 95.729C335.217 95.729 330.251 94.9032 325.634 93.2516C321.017 91.6 317.031 89.2516 313.691 86.1936C310.35 83.1355 307.732 79.4839 305.823 75.2258C303.928 70.9677 302.973 66.2452 302.973 61.0452V61.071ZM326.627 61.3161C326.627 63.4581 327.014 65.4194 327.801 67.2C328.587 68.9806 329.619 70.529 330.896 71.8452C332.173 73.1613 333.708 74.1936 335.475 74.9419C337.254 75.6903 339.125 76.0516 341.111 76.0516C343.097 76.0516 344.967 75.6774 346.747 74.9419C348.527 74.1936 350.049 73.1613 351.326 71.8452C352.602 70.529 353.634 68.9806 354.421 67.2C355.208 65.4194 355.595 63.5097 355.595 61.4452C355.595 59.3806 355.208 57.5871 354.421 55.8064C353.634 54.0258 352.602 52.4774 351.326 51.1613C350.049 49.8452 348.514 48.8129 346.747 48.0645C344.967 47.3161 343.097 46.9548 341.111 46.9548C339.125 46.9548 337.254 47.329 335.475 48.0645C333.695 48.8129 332.173 49.8452 330.896 51.1613C329.619 52.4774 328.587 54.0129 327.801 55.7419C327.014 57.471 326.627 59.329 326.627 61.3161Z" fill="white"/>
<path d="M357.452 61.071C357.452 56.3613 358.393 51.9613 360.302 47.8839C362.198 43.7935 364.842 40.2452 368.221 37.2258C371.6 34.2065 375.624 31.8323 380.293 30.1032C384.962 28.3742 390.057 27.4968 395.59 27.4968C401.123 27.4968 406.088 28.3484 410.757 30.0387C415.413 31.729 419.463 34.0903 422.893 37.0968C426.324 40.1161 428.981 43.7032 430.877 47.871C432.773 52.0387 433.727 56.6452 433.727 61.6774C433.727 66.7097 432.76 71.3161 430.812 75.4839C428.878 79.6516 426.208 83.2516 422.829 86.2581C419.45 89.2774 415.374 91.6 410.628 93.2516C405.882 94.9032 400.736 95.729 395.216 95.729C389.695 95.729 384.73 94.9032 380.113 93.2516C375.495 91.6 371.51 89.2516 368.17 86.1936C364.829 83.1355 362.211 79.4839 360.302 75.2258C358.406 70.9677 357.452 66.2452 357.452 61.0452V61.071ZM381.106 61.3161C381.106 63.4581 381.493 65.4194 382.279 67.2C383.066 68.9806 384.098 70.529 385.375 71.8452C386.652 73.1613 388.186 74.1936 389.953 74.9419C391.733 75.6903 393.603 76.0516 395.59 76.0516C397.576 76.0516 399.446 75.6774 401.226 74.9419C403.006 74.1936 404.527 73.1613 405.804 71.8452C407.081 70.529 408.113 68.9806 408.9 67.2C409.686 65.4194 410.073 63.5097 410.073 61.4452C410.073 59.3806 409.686 57.5871 408.9 55.8064C408.113 54.0258 407.081 52.4774 405.804 51.1613C404.527 49.8452 402.993 48.8129 401.226 48.0645C399.446 47.3161 397.576 46.9548 395.59 46.9548C393.603 46.9548 391.733 47.329 389.953 48.0645C388.174 48.8129 386.652 49.8452 385.375 51.1613C384.098 52.4774 383.066 54.0129 382.279 55.7419C381.493 57.471 381.106 59.329 381.106 61.3161Z" fill="white"/>
</g>
<defs>
<clipPath id="clip0_616_3439">
<rect width="433.714" height="96" fill="white"/>
</clipPath>
</defs>
</svg>
