<svg width="368" height="201" viewBox="0 0 368 201" fill="none" xmlns="http://www.w3.org/2000/svg">
<rect width="368" height="201" fill="#4285F4"/>
<path fill-rule="evenodd" clip-rule="evenodd" d="M205 157C205 153.661 207.359 150.786 210.635 150.135C213.91 149.484 217.19 151.237 218.467 154.322C219.745 157.408 218.665 160.966 215.889 162.821C213.112 164.676 209.411 164.312 207.05 161.95C205.737 160.637 205 158.857 205 157Z" stroke="white" stroke-width="1.5" stroke-linecap="round" stroke-linejoin="round"/>
<path d="M209.375 156.25C208.961 156.25 208.625 156.586 208.625 157C208.625 157.414 208.961 157.75 209.375 157.75V156.25ZM212 157.75C212.414 157.75 212.75 157.414 212.75 157C212.75 156.586 212.414 156.25 212 156.25V157.75ZM212 156.25C211.586 156.25 211.25 156.586 211.25 157C211.25 157.414 211.586 157.75 212 157.75V156.25ZM214.625 157.75C215.039 157.75 215.375 157.414 215.375 157C215.375 156.586 215.039 156.25 214.625 156.25V157.75ZM212.75 157C212.75 156.586 212.414 156.25 212 156.25C211.586 156.25 211.25 156.586 211.25 157H212.75ZM211.25 159.625C211.25 160.039 211.586 160.375 212 160.375C212.414 160.375 212.75 160.039 212.75 159.625H211.25ZM211.25 157C211.25 157.414 211.586 157.75 212 157.75C212.414 157.75 212.75 157.414 212.75 157H211.25ZM212.75 154.375C212.75 153.961 212.414 153.625 212 153.625C211.586 153.625 211.25 153.961 211.25 154.375H212.75ZM209.375 157.75H212V156.25H209.375V157.75ZM212 157.75H214.625V156.25H212V157.75ZM211.25 157V159.625H212.75V157H211.25ZM212.75 157V154.375H211.25V157H212.75Z" fill="white"/>
<path d="M44.0124 96.1498C44.4265 96.1398 44.7541 95.796 44.7441 95.3819C44.7342 94.9678 44.3904 94.6402 43.9763 94.6502L44.0124 96.1498ZM38.4684 101.193H39.2184C39.2184 101.187 39.2183 101.181 39.2182 101.176L38.4684 101.193ZM38.4684 103.51L38.5065 104.259C38.9054 104.239 39.2184 103.909 39.2184 103.51H38.4684ZM38.4684 106.6L38.4302 107.349C38.4429 107.35 38.4556 107.35 38.4684 107.35V106.6ZM41.6614 107.35C42.0756 107.35 42.4114 107.014 42.4114 106.6C42.4114 106.186 42.0756 105.85 41.6614 105.85V107.35ZM43.2444 95.4C43.2444 95.8142 43.5801 96.15 43.9944 96.15C44.4086 96.15 44.7444 95.8142 44.7444 95.4H43.2444ZM44.7444 93C44.7444 92.5858 44.4086 92.25 43.9944 92.25C43.5801 92.25 43.2444 92.5858 43.2444 93H44.7444ZM44.0124 94.6502C43.5983 94.6402 43.2546 94.9678 43.2446 95.3819C43.2346 95.796 43.5622 96.1398 43.9763 96.1498L44.0124 94.6502ZM49.5204 101.193L48.7706 101.176C48.7704 101.181 48.7704 101.187 48.7704 101.193H49.5204ZM49.5204 103.51H48.7704C48.7704 103.909 49.0834 104.239 49.4822 104.259L49.5204 103.51ZM49.5204 106.6V107.35C49.5331 107.35 49.5458 107.35 49.5585 107.349L49.5204 106.6ZM46.3274 105.85C45.9131 105.85 45.5774 106.186 45.5774 106.6C45.5774 107.014 45.9131 107.35 46.3274 107.35V105.85ZM42.4104 106.603C42.4119 106.189 42.0773 105.852 41.6631 105.85C41.2489 105.848 40.9119 106.183 40.9104 106.597L42.4104 106.603ZM42.3434 108.3L42.8842 107.78L42.883 107.779L42.3434 108.3ZM45.6434 108.3L45.1037 107.779L45.1025 107.78L45.6434 108.3ZM47.0764 106.597C47.0748 106.183 46.7378 105.848 46.3236 105.85C45.9094 105.852 45.5749 106.189 45.5764 106.603L47.0764 106.597ZM41.6594 105.85C41.2451 105.85 40.9094 106.186 40.9094 106.6C40.9094 107.014 41.2451 107.35 41.6594 107.35V105.85ZM46.3274 107.35C46.7416 107.35 47.0774 107.014 47.0774 106.6C47.0774 106.186 46.7416 105.85 46.3274 105.85V107.35ZM43.9763 94.6502C40.4375 94.7355 37.6369 97.6715 37.7186 101.21L39.2182 101.176C39.1556 98.4645 41.3013 96.2151 44.0124 96.1498L43.9763 94.6502ZM37.7184 101.193V103.51H39.2184V101.193H37.7184ZM38.4302 102.761C37.2086 102.823 36.25 103.832 36.25 105.055H37.75C37.75 104.631 38.0826 104.281 38.5065 104.259L38.4302 102.761ZM36.25 105.055C36.25 106.278 37.2086 107.287 38.4302 107.349L38.5065 105.851C38.0826 105.829 37.75 105.479 37.75 105.055H36.25ZM38.4684 107.35H41.6614V105.85H38.4684V107.35ZM44.7444 95.4V93H43.2444V95.4H44.7444ZM43.9763 96.1498C46.6874 96.2151 48.8331 98.4645 48.7706 101.176L50.2702 101.21C50.3518 97.6715 47.5512 94.7355 44.0124 94.6502L43.9763 96.1498ZM48.7704 101.193V103.51H50.2704V101.193H48.7704ZM49.4822 104.259C49.9061 104.281 50.2387 104.631 50.2387 105.055H51.7387C51.7387 103.832 50.7801 102.823 49.5585 102.761L49.4822 104.259ZM50.2387 105.055C50.2387 105.479 49.9061 105.829 49.4822 105.851L49.5585 107.349C50.7801 107.287 51.7387 106.278 51.7387 105.055H50.2387ZM49.5204 105.85H46.3274V107.35H49.5204V105.85ZM40.9104 106.597C40.9073 107.426 41.2278 108.224 41.8037 108.821L42.883 107.779C42.5783 107.463 42.4088 107.041 42.4104 106.603L40.9104 106.597ZM41.8025 108.82C42.3753 109.416 43.1665 109.753 43.9934 109.753V108.253C43.5748 108.253 43.1742 108.082 42.8842 107.78L41.8025 108.82ZM43.9934 109.753C44.8202 109.753 45.6114 109.416 46.1842 108.82L45.1025 107.78C44.8125 108.082 44.412 108.253 43.9934 108.253V109.753ZM46.183 108.821C46.7589 108.224 47.0794 107.426 47.0764 106.597L45.5764 106.603C45.578 107.041 45.4084 107.463 45.1037 107.779L46.183 108.821ZM41.6594 107.35H46.3274V105.85H41.6594V107.35Z" fill="white"/>
<path d="M102 152L97 157L102 162" stroke="white" stroke-width="1.5" stroke-linecap="round" stroke-linejoin="round"/>
<path d="M154 152L159 157L154 162" stroke="white" stroke-width="1.5" stroke-linecap="round" stroke-linejoin="round"/>
<path d="M262.47 161.47C262.177 161.763 262.177 162.237 262.47 162.53C262.763 162.823 263.237 162.823 263.53 162.53L262.47 161.47ZM268.53 157.53C268.823 157.237 268.823 156.763 268.53 156.47C268.237 156.177 267.763 156.177 267.47 156.47L268.53 157.53ZM267.47 156.47C267.177 156.763 267.177 157.237 267.47 157.53C267.763 157.823 268.237 157.823 268.53 157.53L267.47 156.47ZM273.53 152.53C273.823 152.237 273.823 151.763 273.53 151.47C273.237 151.177 272.763 151.177 272.47 151.47L273.53 152.53ZM268.53 156.47C268.237 156.177 267.763 156.177 267.47 156.47C267.177 156.763 267.177 157.237 267.47 157.53L268.53 156.47ZM272.47 162.53C272.763 162.823 273.237 162.823 273.53 162.53C273.823 162.237 273.823 161.763 273.53 161.47L272.47 162.53ZM267.47 157.53C267.763 157.823 268.237 157.823 268.53 157.53C268.823 157.237 268.823 156.763 268.53 156.47L267.47 157.53ZM263.53 151.47C263.237 151.177 262.763 151.177 262.47 151.47C262.177 151.763 262.177 152.237 262.47 152.53L263.53 151.47ZM263.53 162.53L268.53 157.53L267.47 156.47L262.47 161.47L263.53 162.53ZM268.53 157.53L273.53 152.53L272.47 151.47L267.47 156.47L268.53 157.53ZM267.47 157.53L272.47 162.53L273.53 161.47L268.53 156.47L267.47 157.53ZM268.53 156.47L263.53 151.47L262.47 152.53L267.47 157.53L268.53 156.47Z" fill="white"/>
<path fill-rule="evenodd" clip-rule="evenodd" d="M93 99.7655C93 97.0151 94.943 94.6478 97.6405 94.1113C100.338 93.5748 103.039 95.0187 104.091 97.5598C105.144 100.101 104.254 103.032 101.967 104.559C99.6804 106.087 96.6326 105.787 94.688 103.842C93.6072 102.76 93 101.294 93 99.7655Z" stroke="white" stroke-width="1.5" stroke-linecap="round" stroke-linejoin="round"/>
<path d="M104.529 105.529L107 108" stroke="white" stroke-width="1.5" stroke-linecap="round" stroke-linejoin="round"/>
<path fill-rule="evenodd" clip-rule="evenodd" d="M154.69 96.85C155.193 96.0934 155.067 95.0823 154.393 94.4731C153.718 93.8639 152.7 93.8404 151.998 94.4178C151.296 94.9952 151.123 95.9994 151.591 96.7784C152.059 97.5574 153.027 97.8762 153.866 97.528C154.202 97.388 154.488 97.1522 154.69 96.85Z" stroke="white" stroke-width="1.5" stroke-linecap="round" stroke-linejoin="round"/>
<path fill-rule="evenodd" clip-rule="evenodd" d="M154.69 107.165C155.193 106.408 155.067 105.397 154.393 104.788C153.718 104.179 152.7 104.155 151.998 104.733C151.296 105.31 151.123 106.314 151.591 107.093C152.059 107.872 153.027 108.191 153.866 107.843C154.202 107.703 154.488 107.467 154.69 107.165V107.165Z" stroke="white" stroke-width="1.5" stroke-linecap="round" stroke-linejoin="round"/>
<path fill-rule="evenodd" clip-rule="evenodd" d="M157.31 102.007C156.807 101.251 156.933 100.24 157.608 99.6303C158.282 99.0212 159.301 98.9976 160.002 99.575C160.704 100.152 160.877 101.157 160.409 101.936C159.941 102.715 158.973 103.033 158.134 102.685C157.799 102.545 157.512 102.309 157.31 102.007V102.007Z" stroke="white" stroke-width="1.5" stroke-linecap="round" stroke-linejoin="round"/>
<path d="M155 95.0762C154.586 95.0762 154.25 95.412 154.25 95.8262C154.25 96.2404 154.586 96.5762 155 96.5762V95.0762ZM163 96.5762C163.414 96.5762 163.75 96.2404 163.75 95.8262C163.75 95.412 163.414 95.0762 163 95.0762V96.5762ZM151.327 96.5762C151.741 96.5762 152.077 96.2404 152.077 95.8262C152.077 95.412 151.741 95.0762 151.327 95.0762V96.5762ZM149 95.0762C148.586 95.0762 148.25 95.412 148.25 95.8262C148.25 96.2404 148.586 96.5762 149 96.5762V95.0762ZM155 105.392C154.586 105.392 154.25 105.728 154.25 106.142C154.25 106.556 154.586 106.892 155 106.892V105.392ZM163 106.892C163.414 106.892 163.75 106.556 163.75 106.142C163.75 105.728 163.414 105.392 163 105.392V106.892ZM151.327 106.892C151.741 106.892 152.077 106.556 152.077 106.142C152.077 105.728 151.741 105.392 151.327 105.392V106.892ZM149 105.392C148.586 105.392 148.25 105.728 148.25 106.142C148.25 106.556 148.586 106.892 149 106.892V105.392ZM157 101.734C157.414 101.734 157.75 101.398 157.75 100.984C157.75 100.57 157.414 100.234 157 100.234V101.734ZM149 100.234C148.586 100.234 148.25 100.57 148.25 100.984C148.25 101.398 148.586 101.734 149 101.734V100.234ZM160.673 100.234C160.259 100.234 159.923 100.57 159.923 100.984C159.923 101.398 160.259 101.734 160.673 101.734V100.234ZM163 101.734C163.414 101.734 163.75 101.398 163.75 100.984C163.75 100.57 163.414 100.234 163 100.234V101.734ZM155 96.5762H163V95.0762H155V96.5762ZM151.327 95.0762H149V96.5762H151.327V95.0762ZM155 106.892H163V105.392H155V106.892ZM151.327 105.392H149V106.892H151.327V105.392ZM157 100.234H149V101.734H157V100.234ZM160.673 101.734H163V100.234H160.673V101.734Z" fill="white"/>
<path d="M326.67 100.053L322.68 104.315C322.342 104.693 321.86 104.912 321.352 104.918C320.845 104.924 320.358 104.716 320.011 104.346C319.244 103.545 319.257 102.279 320.04 101.494L325.399 95.763C325.99 95.1049 326.831 94.7268 327.716 94.7216C328.601 94.7165 329.446 95.0848 330.045 95.736C331.322 97.1474 331.313 99.2995 330.024 100.7L324.342 106.771C323.533 107.583 322.427 108.026 321.281 107.997C320.136 107.968 319.053 107.469 318.286 106.618C316.534 104.641 316.577 101.655 318.386 99.73L323.753 94" stroke="white" stroke-width="1.5" stroke-linecap="round" stroke-linejoin="round"/>
<path d="M36.6057 41.362C36.2534 41.5797 36.1442 42.0419 36.362 42.3943C36.5798 42.7466 37.0419 42.8557 37.3943 42.638L36.6057 41.362ZM39.3943 41.402C39.7466 41.1842 39.8558 40.7221 39.638 40.3697C39.4202 40.0173 38.9581 39.9082 38.6057 40.126L39.3943 41.402ZM39.75 40.764C39.75 40.3498 39.4142 40.014 39 40.014C38.5858 40.014 38.25 40.3498 38.25 40.764H39.75ZM42 49.75C42.4142 49.75 42.75 49.4142 42.75 49C42.75 48.5858 42.4142 48.25 42 48.25V49.75ZM38.6056 40.126C38.2533 40.3439 38.1443 40.806 38.3621 41.1584C38.5799 41.5107 39.0421 41.6197 39.3944 41.4019L38.6056 40.126ZM43.162 38.191L42.837 37.515C42.8132 37.5265 42.7901 37.5392 42.7676 37.553L43.162 38.191ZM44.838 38.191L45.2324 37.553C45.2099 37.5392 45.1868 37.5265 45.163 37.515L44.838 38.191ZM48.6056 41.4019C48.9579 41.6197 49.4201 41.5107 49.6379 41.1584C49.8557 40.806 49.7467 40.3439 49.3944 40.126L48.6056 41.4019ZM41.25 49C41.25 49.4142 41.5858 49.75 42 49.75C42.4142 49.75 42.75 49.4142 42.75 49H41.25ZM45.25 49C45.25 49.4142 45.5858 49.75 46 49.75C46.4142 49.75 46.75 49.4142 46.75 49H45.25ZM42 48.25C41.5858 48.25 41.25 48.5858 41.25 49C41.25 49.4142 41.5858 49.75 42 49.75V48.25ZM46 49.75C46.4142 49.75 46.75 49.4142 46.75 49C46.75 48.5858 46.4142 48.25 46 48.25V49.75ZM46 48.25C45.5858 48.25 45.25 48.5858 45.25 49C45.25 49.4142 45.5858 49.75 46 49.75V48.25ZM49.75 40.764C49.75 40.3498 49.4142 40.014 49 40.014C48.5858 40.014 48.25 40.3498 48.25 40.764H49.75ZM49.3943 40.126C49.0419 39.9082 48.5798 40.0173 48.362 40.3697C48.1442 40.7221 48.2534 41.1842 48.6057 41.402L49.3943 40.126ZM50.6057 42.638C50.9581 42.8557 51.4202 42.7466 51.638 42.3943C51.8558 42.0419 51.7466 41.5797 51.3943 41.362L50.6057 42.638ZM37.3943 42.638L39.3943 41.402L38.6057 40.126L36.6057 41.362L37.3943 42.638ZM38.25 40.764V47.5H39.75V40.764H38.25ZM38.25 47.5C38.25 48.1176 38.4068 48.7486 38.9327 49.1962C39.4287 49.6184 40.1102 49.75 40.85 49.75V48.25C40.2398 48.25 39.9963 48.1317 39.9048 48.0538C39.8432 48.0014 39.75 47.8824 39.75 47.5H38.25ZM40.85 49.75H42V48.25H40.85V49.75ZM39.3944 41.4019L43.5564 38.8289L42.7676 37.553L38.6056 40.126L39.3944 41.4019ZM43.487 38.8669C43.8112 38.711 44.1888 38.711 44.513 38.8669L45.163 37.515C44.4279 37.1617 43.5721 37.1617 42.837 37.515L43.487 38.8669ZM44.4436 38.8289L48.6056 41.4019L49.3944 40.126L45.2324 37.553L44.4436 38.8289ZM42.75 49V48H41.25V49H42.75ZM42.75 48C42.75 47.3096 43.3096 46.75 44 46.75V45.25C42.4812 45.25 41.25 46.4812 41.25 48H42.75ZM44 46.75C44.6904 46.75 45.25 47.3096 45.25 48H46.75C46.75 46.4812 45.5188 45.25 44 45.25V46.75ZM45.25 48V49H46.75V48H45.25ZM42 49.75H46V48.25H42V49.75ZM46 49.75H47.15V48.25H46V49.75ZM47.15 49.75C47.8898 49.75 48.5713 49.6184 49.0673 49.1962C49.5932 48.7486 49.75 48.1176 49.75 47.5H48.25C48.25 47.8824 48.1568 48.0014 48.0952 48.0538C48.0037 48.1317 47.7602 48.25 47.15 48.25V49.75ZM49.75 47.5V40.764H48.25V47.5H49.75ZM48.6057 41.402L50.6057 42.638L51.3943 41.362L49.3943 40.126L48.6057 41.402Z" fill="white"/>
<path fill-rule="evenodd" clip-rule="evenodd" d="M93 42.7655C93 40.0151 94.943 37.6478 97.6405 37.1113C100.338 36.5748 103.039 38.0187 104.091 40.5598C105.144 43.1009 104.254 46.0315 101.967 47.5593C99.6804 49.0871 96.6326 48.7866 94.688 46.8415C93.6072 45.7604 93 44.2942 93 42.7655Z" stroke="white" stroke-width="1.5" stroke-linecap="round" stroke-linejoin="round"/>
<path d="M104.529 48.5293L107 51.0003" stroke="white" stroke-width="1.5" stroke-linecap="round" stroke-linejoin="round"/>
<path fill-rule="evenodd" clip-rule="evenodd" d="M152.663 38H159.338C161.376 38.0154 163.015 39.6794 163 41.717V46.23C163.007 47.2087 162.625 48.1501 161.938 48.8472C161.251 49.5442 160.316 49.9399 159.337 49.947H152.663L149 52V41.717C148.993 40.7383 149.375 39.7969 150.062 39.0998C150.749 38.4028 151.684 38.0071 152.663 38Z" stroke="white" stroke-width="1.5" stroke-linecap="round" stroke-linejoin="round"/>
<path fill-rule="evenodd" clip-rule="evenodd" d="M214.477 103H209.523C208.065 103.072 206.773 103.963 206.187 105.3C205.48 106.688 206.891 108 208.532 108H215.468C217.11 108 218.521 106.688 217.813 105.3C217.227 103.963 215.935 103.072 214.477 103Z" stroke="white" stroke-width="1.5" stroke-linecap="round" stroke-linejoin="round"/>
<path fill-rule="evenodd" clip-rule="evenodd" d="M215 97C215 98.6569 213.657 100 212 100C210.343 100 209 98.6569 209 97C209 95.3431 210.343 94 212 94C212.796 94 213.559 94.3161 214.121 94.8787C214.684 95.4413 215 96.2044 215 97Z" stroke="white" stroke-width="1.5" stroke-linecap="round" stroke-linejoin="round"/>
<path d="M330.617 45.1484C330.974 45.3581 331.434 45.2384 331.643 44.8811C331.853 44.5238 331.733 44.0643 331.376 43.8547L330.617 45.1484ZM318.443 37.1366L318.056 37.779L318.064 37.7834L318.443 37.1366ZM317.424 37.1598L317.008 36.5357L317.008 36.5357L317.424 37.1598ZM317.01 38.0916L316.268 38.2015C316.276 38.251 316.288 38.2997 316.305 38.3467L317.01 38.0916ZM318.624 44.7567C318.765 45.1462 319.195 45.3477 319.584 45.2068C319.974 45.0659 320.175 44.6359 320.035 44.2464L318.624 44.7567ZM331.376 45.1484C331.733 44.9388 331.853 44.4793 331.643 44.122C331.434 43.7648 330.974 43.6451 330.617 43.8547L331.376 45.1484ZM318.443 51.8666L318.064 51.2196L318.056 51.2241L318.443 51.8666ZM317.424 51.8433L317.008 52.4674L317.008 52.4674L317.424 51.8433ZM317.01 50.9116L316.305 50.6564C316.288 50.7035 316.276 50.7521 316.268 50.8016L317.01 50.9116ZM320.035 44.7567C320.175 44.3672 319.974 43.9372 319.584 43.7963C319.195 43.6554 318.765 43.8569 318.624 44.2464L320.035 44.7567ZM330.996 45.2516C331.411 45.2516 331.746 44.9158 331.746 44.5016C331.746 44.0873 331.411 43.7516 330.996 43.7516V45.2516ZM319.329 43.7516C318.915 43.7516 318.579 44.0873 318.579 44.5016C318.579 44.9158 318.915 45.2516 319.329 45.2516V43.7516ZM331.376 43.8547L318.823 36.4897L318.064 37.7834L330.617 45.1484L331.376 43.8547ZM318.83 36.4941C318.266 36.1542 317.556 36.1704 317.008 36.5357L317.84 37.7839C317.905 37.7406 317.989 37.7386 318.056 37.779L318.83 36.4941ZM317.008 36.5357C316.46 36.901 316.172 37.5499 316.268 38.2015L317.752 37.9816C317.741 37.9043 317.775 37.8273 317.84 37.7839L317.008 36.5357ZM316.305 38.3467L318.624 44.7567L320.035 44.2464L317.716 37.8364L316.305 38.3467ZM330.617 43.8547L318.064 51.2197L318.823 52.5134L331.376 45.1484L330.617 43.8547ZM318.056 51.2241C317.989 51.2645 317.905 51.2626 317.84 51.2192L317.008 52.4674C317.556 52.8327 318.266 52.8489 318.83 52.509L318.056 51.2241ZM317.84 51.2192C317.775 51.1759 317.741 51.0988 317.752 51.0215L316.268 50.8016C316.172 51.4533 316.46 52.1021 317.008 52.4674L317.84 51.2192ZM317.716 51.1667L320.035 44.7567L318.624 44.2464L316.305 50.6564L317.716 51.1667ZM330.996 43.7516H319.329V45.2516H330.996V43.7516Z" fill="white"/>
<path fill-rule="evenodd" clip-rule="evenodd" d="M40 157C40 158.105 39.1046 159 38 159C36.8954 159 36 158.105 36 157C36 155.895 36.8954 155 38 155C38.5304 155 39.0391 155.211 39.4142 155.586C39.7893 155.961 40 156.47 40 157Z" stroke="white" stroke-width="1.5" stroke-linecap="round" stroke-linejoin="round"/>
<path fill-rule="evenodd" clip-rule="evenodd" d="M46 157C46 158.105 45.1046 159 44 159C42.8954 159 42 158.105 42 157C42 155.895 42.8954 155 44 155C45.1046 155 46 155.895 46 157Z" stroke="white" stroke-width="1.5" stroke-linecap="round" stroke-linejoin="round"/>
<path fill-rule="evenodd" clip-rule="evenodd" d="M52 157C52 158.105 51.1046 159 50 159C48.8954 159 48 158.105 48 157C48 155.895 48.8954 155 50 155C51.1046 155 52 155.895 52 157Z" stroke="white" stroke-width="1.5" stroke-linecap="round" stroke-linejoin="round"/>
<path d="M260.75 39.471C260.75 39.0568 260.414 38.721 260 38.721C259.586 38.721 259.25 39.0568 259.25 39.471H260.75ZM260 50.353L260.75 50.3539V50.353H260ZM260.48 51.5168L261.011 50.9871L261.011 50.9871L260.48 51.5168ZM261.643 52L261.642 52.75H261.643V52ZM274.357 52V52.75L274.358 52.75L274.357 52ZM275.52 51.5168L274.989 50.9871L274.989 50.9871L275.52 51.5168ZM276 50.353L275.25 50.353L275.25 50.3539L276 50.353ZM276 41.118L275.25 41.1171V41.118H276ZM275.52 39.9542L274.989 40.4839L274.989 40.4839L275.52 39.9542ZM274.357 39.471L274.358 38.721H274.357V39.471ZM268.536 38.721C268.122 38.721 267.786 39.0568 267.786 39.471C267.786 39.8852 268.122 40.221 268.536 40.221V38.721ZM259.25 39.471C259.25 39.8852 259.586 40.221 260 40.221C260.414 40.221 260.75 39.8852 260.75 39.471H259.25ZM260 38.647L260.75 38.647L260.75 38.6461L260 38.647ZM260.48 37.4832L261.011 38.0129L261.011 38.0129L260.48 37.4832ZM261.643 37V36.25L261.642 36.25L261.643 37ZM266.893 37L266.894 36.25H266.893V37ZM268.056 37.4832L267.525 38.0129L267.525 38.0129L268.056 37.4832ZM268.536 38.647L267.786 38.6461V38.647H268.536ZM267.786 39.471C267.786 39.8852 268.122 40.221 268.536 40.221C268.95 40.221 269.286 39.8852 269.286 39.471H267.786ZM260 38.721C259.586 38.721 259.25 39.0568 259.25 39.471C259.25 39.8852 259.586 40.221 260 40.221V38.721ZM268.536 40.221C268.95 40.221 269.286 39.8852 269.286 39.471C269.286 39.0568 268.95 38.721 268.536 38.721V40.221ZM259.25 39.471V50.353H260.75V39.471H259.25ZM259.25 50.3521C259.249 50.9873 259.501 51.5968 259.949 52.0465L261.011 50.9871C260.844 50.819 260.75 50.5913 260.75 50.3539L259.25 50.3521ZM259.949 52.0465C260.398 52.4962 261.007 52.7492 261.642 52.75L261.644 51.25C261.407 51.2497 261.179 51.1551 261.011 50.9871L259.949 52.0465ZM261.643 52.75H274.357V51.25H261.643V52.75ZM274.358 52.75C274.993 52.7492 275.602 52.4962 276.051 52.0465L274.989 50.9871C274.821 51.1551 274.593 51.2497 274.356 51.25L274.358 52.75ZM276.051 52.0465C276.499 51.5968 276.751 50.9873 276.75 50.3521L275.25 50.3539C275.25 50.5913 275.156 50.819 274.989 50.9871L276.051 52.0465ZM276.75 50.353V41.118H275.25V50.353H276.75ZM276.75 41.1189C276.751 40.4837 276.499 39.8742 276.051 39.4245L274.989 40.4839C275.156 40.652 275.25 40.8797 275.25 41.1171L276.75 41.1189ZM276.051 39.4245C275.602 38.9748 274.993 38.7218 274.358 38.721L274.356 40.221C274.593 40.2213 274.821 40.3159 274.989 40.4839L276.051 39.4245ZM274.357 38.721H268.536V40.221H274.357V38.721ZM260.75 39.471V38.647H259.25V39.471H260.75ZM260.75 38.6461C260.75 38.4087 260.844 38.181 261.011 38.0129L259.949 36.9535C259.501 37.4032 259.249 38.0127 259.25 38.6479L260.75 38.6461ZM261.011 38.0129C261.179 37.8449 261.407 37.7503 261.644 37.75L261.642 36.25C261.007 36.2508 260.398 36.5038 259.949 36.9535L261.011 38.0129ZM261.643 37.75H266.893V36.25H261.643V37.75ZM266.892 37.75C267.129 37.7503 267.357 37.8449 267.525 38.0129L268.587 36.9535C268.138 36.5038 267.529 36.2508 266.894 36.25L266.892 37.75ZM267.525 38.0129C267.692 38.181 267.786 38.4087 267.786 38.6461L269.286 38.6479C269.287 38.0127 269.035 37.4032 268.587 36.9535L267.525 38.0129ZM267.786 38.647V39.471H269.286V38.647H267.786ZM260 40.221H268.536V38.721H260V40.221Z" fill="white"/>
<path d="M212.794 40.9588C213.053 40.6356 213.001 40.1636 212.678 39.9045C212.355 39.6455 211.883 39.6975 211.624 40.0207L212.794 40.9588ZM206.311 47.8488L206.879 48.3385C206.885 48.3317 206.891 48.3248 206.896 48.3178L206.311 47.8488ZM206.14 48.2668L205.391 48.2179L205.391 48.2321L206.14 48.2668ZM206 51.2898L205.251 51.2551C205.249 51.2923 205.25 51.3296 205.254 51.3667L206 51.2898ZM206.787 51.9768L206.812 52.7264C206.862 52.7247 206.911 52.7181 206.96 52.7065L206.787 51.9768ZM209.787 51.2658L209.96 51.9956L209.972 51.9927L209.787 51.2658ZM210.172 51.0218L210.751 51.4991L210.757 51.491L210.172 51.0218ZM216.797 43.959C217.056 43.6358 217.004 43.1638 216.681 42.9047C216.358 42.6455 215.886 42.6974 215.627 43.0206L216.797 43.959ZM211.627 40.0205C211.368 40.3437 211.42 40.8157 211.743 41.0748C212.066 41.334 212.538 41.2821 212.797 40.959L211.627 40.0205ZM213.8 38.5098L214.385 38.979C214.395 38.9667 214.404 38.9541 214.413 38.9412L213.8 38.5098ZM215.429 38.1898L215.909 37.6133C215.885 37.5934 215.86 37.5751 215.834 37.5583L215.429 38.1898ZM217.666 40.0518L218.197 39.5219C218.181 39.5056 218.164 39.4901 218.146 39.4753L217.666 40.0518ZM218.003 40.8726L218.753 40.8768L218.753 40.8768L218.003 40.8726ZM217.657 41.6898L217.132 41.1541C217.111 41.175 217.091 41.197 217.072 41.2203L217.657 41.6898ZM215.627 43.0203C215.368 43.3433 215.419 43.8153 215.742 44.0746C216.065 44.3339 216.538 44.2823 216.797 43.9593L215.627 43.0203ZM212.954 40.3786C212.892 39.969 212.51 39.6867 212.101 39.748C211.691 39.8094 211.409 40.1913 211.47 40.6009L212.954 40.3786ZM216.313 44.2329C216.723 44.1772 217.011 43.7992 216.955 43.3888C216.899 42.9783 216.521 42.6908 216.111 42.7466L216.313 44.2329ZM211.624 40.0207L205.726 47.3797L206.896 48.3178L212.794 40.9588L211.624 40.0207ZM205.743 47.359C205.536 47.5995 205.412 47.9011 205.392 48.218L206.888 48.3156C206.888 48.324 206.885 48.3321 206.879 48.3385L205.743 47.359ZM205.391 48.2321L205.251 51.2551L206.749 51.3245L206.889 48.3015L205.391 48.2321ZM205.254 51.3667C205.336 52.1586 206.016 52.7524 206.812 52.7264L206.762 51.2272C206.759 51.2273 206.758 51.2268 206.757 51.2264C206.755 51.2259 206.753 51.2249 206.751 51.2232C206.749 51.2215 206.748 51.2198 206.748 51.2185C206.747 51.2175 206.746 51.216 206.746 51.2128L205.254 51.3667ZM206.96 52.7065L209.96 51.9955L209.614 50.536L206.614 51.247L206.96 52.7065ZM209.972 51.9927C210.277 51.9151 210.55 51.7422 210.751 51.499L209.593 50.5445C209.596 50.5417 209.599 50.5397 209.602 50.5388L209.972 51.9927ZM210.757 51.491L216.797 43.959L215.627 43.0206L209.587 50.5526L210.757 51.491ZM212.797 40.959L214.385 38.979L213.215 38.0405L211.627 40.0205L212.797 40.959ZM214.413 38.9412C214.552 38.7441 214.821 38.6912 215.024 38.8212L215.834 37.5583C214.954 36.9948 213.787 37.2241 213.187 38.0783L214.413 38.9412ZM214.949 38.7662L217.186 40.6282L218.146 39.4753L215.909 37.6133L214.949 38.7662ZM217.135 40.5816C217.211 40.6577 217.254 40.761 217.253 40.8685L218.753 40.8768C218.756 40.369 218.556 39.8813 218.197 39.5219L217.135 40.5816ZM217.253 40.8685C217.252 40.976 217.209 41.0789 217.132 41.1541L218.182 42.2254C218.545 41.87 218.75 41.3845 218.753 40.8768L217.253 40.8685ZM217.072 41.2203L215.627 43.0203L216.797 43.9593L218.242 42.1593L217.072 41.2203ZM211.47 40.6009C211.82 42.9322 213.977 44.5503 216.313 44.2329L216.111 42.7466C214.588 42.9535 213.181 41.8986 212.954 40.3786L211.47 40.6009Z" fill="white"/>
<path d="M260.25 97.733C260.25 98.1472 260.586 98.483 261 98.483C261.414 98.483 261.75 98.1472 261.75 97.733H260.25ZM261.75 94C261.75 93.5858 261.414 93.25 261 93.25C260.586 93.25 260.25 93.5858 260.25 94H261.75ZM261 93.25C260.586 93.25 260.25 93.5858 260.25 94C260.25 94.4142 260.586 94.75 261 94.75V93.25ZM264.733 94.75C265.147 94.75 265.483 94.4142 265.483 94C265.483 93.5858 265.147 93.25 264.733 93.25V94.75ZM261.53 93.4697C261.237 93.1768 260.763 93.1768 260.47 93.4697C260.177 93.7626 260.177 94.2374 260.47 94.5303L261.53 93.4697ZM265.47 99.5303C265.763 99.8232 266.237 99.8232 266.53 99.5303C266.823 99.2374 266.823 98.7626 266.53 98.4697L265.47 99.5303ZM271.267 107.25C270.853 107.25 270.517 107.586 270.517 108C270.517 108.414 270.853 108.75 271.267 108.75V107.25ZM275 108.75C275.414 108.75 275.75 108.414 275.75 108C275.75 107.586 275.414 107.25 275 107.25V108.75ZM274.25 108C274.25 108.414 274.586 108.75 275 108.75C275.414 108.75 275.75 108.414 275.75 108H274.25ZM275.75 104.267C275.75 103.853 275.414 103.517 275 103.517C274.586 103.517 274.25 103.853 274.25 104.267H275.75ZM274.47 108.53C274.763 108.823 275.237 108.823 275.53 108.53C275.823 108.237 275.823 107.763 275.53 107.47L274.47 108.53ZM270.53 102.47C270.237 102.177 269.763 102.177 269.47 102.47C269.177 102.763 269.177 103.237 269.47 103.53L270.53 102.47ZM261.75 104.267C261.75 103.853 261.414 103.517 261 103.517C260.586 103.517 260.25 103.853 260.25 104.267H261.75ZM260.25 108C260.25 108.414 260.586 108.75 261 108.75C261.414 108.75 261.75 108.414 261.75 108H260.25ZM261 107.25C260.586 107.25 260.25 107.586 260.25 108C260.25 108.414 260.586 108.75 261 108.75V107.25ZM264.733 108.75C265.147 108.75 265.483 108.414 265.483 108C265.483 107.586 265.147 107.25 264.733 107.25V108.75ZM260.47 107.47C260.177 107.763 260.177 108.237 260.47 108.53C260.763 108.823 261.237 108.823 261.53 108.53L260.47 107.47ZM266.53 103.53C266.823 103.237 266.823 102.763 266.53 102.47C266.237 102.177 265.763 102.177 265.47 102.47L266.53 103.53ZM271.267 93.25C270.853 93.25 270.517 93.5858 270.517 94C270.517 94.4142 270.853 94.75 271.267 94.75V93.25ZM275 94.75C275.414 94.75 275.75 94.4142 275.75 94C275.75 93.5858 275.414 93.25 275 93.25V94.75ZM275.75 94C275.75 93.5858 275.414 93.25 275 93.25C274.586 93.25 274.25 93.5858 274.25 94H275.75ZM274.25 97.733C274.25 98.1472 274.586 98.483 275 98.483C275.414 98.483 275.75 98.1472 275.75 97.733H274.25ZM275.53 94.5303C275.823 94.2374 275.823 93.7626 275.53 93.4697C275.237 93.1768 274.763 93.1768 274.47 93.4697L275.53 94.5303ZM269.47 98.4697C269.177 98.7626 269.177 99.2374 269.47 99.5303C269.763 99.8232 270.237 99.8232 270.53 99.5303L269.47 98.4697ZM261.75 97.733V94H260.25V97.733H261.75ZM261 94.75H264.733V93.25H261V94.75ZM260.47 94.5303L265.47 99.5303L266.53 98.4697L261.53 93.4697L260.47 94.5303ZM271.267 108.75H275V107.25H271.267V108.75ZM275.75 108V104.267H274.25V108H275.75ZM275.53 107.47L270.53 102.47L269.47 103.53L274.47 108.53L275.53 107.47ZM260.25 104.267V108H261.75V104.267H260.25ZM261 108.75H264.733V107.25H261V108.75ZM261.53 108.53L266.53 103.53L265.47 102.47L260.47 107.47L261.53 108.53ZM271.267 94.75H275V93.25H271.267V94.75ZM274.25 94V97.733H275.75V94H274.25ZM274.47 93.4697L269.47 98.4697L270.53 99.5303L275.53 94.5303L274.47 93.4697Z" fill="white"/>
</svg>
